<?xml version="1.0" encoding="utf-8"?>
<!-- Generator: Adobe Illustrator 22.1.0, SVG Export Plug-In . SVG Version: 6.00 Build 0)  -->
<svg version="1.1" id="Layer_1" xmlns="http://www.w3.org/2000/svg" xmlns:xlink="http://www.w3.org/1999/xlink" x="0px" y="0px"
	 viewBox="0 0 164 23" style="enable-background:new 0 0 164 23;" xml:space="preserve">
<style type="text/css">
	.st0{fill:#231F20;}
	.st1{fill:#FFFFFF;}
</style>
<path class="st0" d="M3.6,6.3L3.6,6.3L3.6,6.3L3.6,6.3L3.6,6.3C3.6,6.3,3.6,6.2,3.6,6.3z"/>
<polygon class="st0" points="3.4,6.4 3.4,6.5 3.4,6.5 3.4,6.4 3.4,6.4 3.4,6.4 "/>
<polygon class="st0" points="4,6.6 4,6.6 4,6.6 "/>
<polygon class="st0" points="3.2,6.6 3.2,6.6 3.2,6.6 "/>
<polygon class="st0" points="3.7,7.3 3.7,7.2 3.7,7.2 "/>
<path class="st0" d="M2.8,7.3L2.8,7.3L2.8,7.3z"/>
<polygon class="st0" points="3.1,8.2 3.1,8.3 3.1,8.3 3,8.2 3.1,8.3 "/>
<polygon class="st0" points="2.7,9.4 2.8,9.3 2.7,9.3 2.8,9.3 "/>
<path class="st0" d="M3.3,9.8C3.3,9.8,3.3,9.8,3.3,9.8L3.3,9.8z"/>
<path class="st0" d="M3.3,10.1L3.3,10.1L3.3,10.1L3.3,10.1L3.3,10.1L3.3,10.1C3.3,10.1,3.3,10.1,3.3,10.1z"/>
<path class="st0" d="M2.4,11.4C2.4,11.5,2.4,11.5,2.4,11.4C2.4,11.5,2.5,11.5,2.4,11.4L2.4,11.4z"/>
<polygon class="st0" points="2.4,11.7 2.4,11.6 2.4,11.7 "/>
<rect x="1.8" y="11.7" class="st0" width="0" height="0.1"/>
<polygon class="st0" points="1.8,11.9 1.8,11.9 1.8,11.9 "/>
<path class="st0" d="M2.5,12.3C2.5,12.3,2.5,12.3,2.5,12.3L2.5,12.3L2.5,12.3C2.5,12.3,2.5,12.3,2.5,12.3z"/>
<path class="st0" d="M2.5,13.3L2.5,13.3C2.5,13.3,2.5,13.3,2.5,13.3C2.5,13.3,2.5,13.3,2.5,13.3z"/>
<path class="st0" d="M2.6,13.8L2.6,13.8L2.6,13.8z"/>
<polygon class="st0" points="2,14 2,14.1 2,14.1 2,14 2,14 2,14 "/>
<polygon class="st0" points="2.7,14.1 2.6,14.1 2.6,14.1 "/>
<path class="st0" d="M2.9,14.7L2.9,14.7C2.9,14.7,2.8,14.7,2.9,14.7C2.8,14.7,2.8,14.7,2.9,14.7z"/>
<path class="st0" d="M2.9,14.7L2.9,14.7L2.9,14.7z"/>
<path class="st0" d="M3,15C3,15.1,3,15,3,15L3,15C2.9,15.1,3,15.1,3,15L3,15L3,15L3,15z"/>
<path class="st0" d="M2.4,15.5L2.4,15.5L2.4,15.5C2.4,15.6,2.4,15.5,2.4,15.5C2.4,15.5,2.4,15.5,2.4,15.5z"/>
<path class="st0" d="M3.9,15.7L3.9,15.7L3.9,15.7C3.9,15.6,3.9,15.7,3.9,15.7z"/>
<path class="st0" d="M3.3,15.9L3.3,15.9L3.3,15.9L3.3,15.9C3.3,16,3.3,15.9,3.3,15.9L3.3,15.9z"/>
<path class="st0" d="M2.6,16.1L2.6,16.1L2.6,16.1z"/>
<path class="st0" d="M2.6,16.2C2.6,16.2,2.6,16.2,2.6,16.2L2.6,16.2z"/>
<path class="st0" d="M3,16.8C3,16.8,3,16.9,3,16.8C3,16.9,3,16.8,3,16.8L3,16.8L3,16.8z"/>
<rect x="3.8" y="16.9" class="st0" width="0" height="0.1"/>
<path class="st0" d="M3.2,17L3.2,17C3.1,17,3.1,17.1,3.2,17L3.2,17C3.1,17,3.2,17,3.2,17z"/>
<path class="st1" d="M16.5,21.2c-0.3,0-1-0.1-1.5-0.1c-1.1,0-2,0.2-3.1,0.2c-6.2,0-8.9-4.9-8.9-9.2c0-5.8,3.6-9.7,8.3-9.7
	c0.7,0,1.3,0.1,1.9,0.1c0.6,0.1,1.3,0.1,2.3,0.1c1,0,1.7,0,2.3-0.1l0.1,4.2h-0.1L17.1,4c-0.9-0.2-2.8-0.6-4.4-0.6
	c-4.6,0-7.1,3.4-7.1,8.4c0,5.4,3.5,8.6,7.4,8.6c1.7,0,3.5-0.4,5-2.7l0.1,0.1L16.5,21.2z M13.1,20.8C7,21,4.3,16.3,4.3,12
	c0-4.1,2.3-9,8.1-9h0.8V2.8h-1.3c-5.3,0-8.4,4.2-8.4,9.4c0,4.7,3.3,9.4,9.7,8.9V20.8z"/>
<path class="st1" d="M24.2,6.7l3.5,9.6c0.5,1.3,1,2.5,1.6,3.7l1.3,0.3v0.1h-5.7v-0.1l2.2-0.3c-0.2-1.2-0.6-2.8-1.2-3.9h-5.1
	c-0.4,1.1-1,2.8-1.1,3.9l2.1,0.3v0.1h-4.5v-0.1l1.5-0.3c0.3-0.7,0.7-1.6,1-2.4l3.7-11H24.2z M21.1,15.6c0.7,0.1,1.5,0.1,2.3,0.1
	c0.8,0,1.5,0,2.3-0.1c-0.4-1.5-1.5-4.3-2.4-6.2C22.6,11,21.4,14.6,21.1,15.6z M23.4,8.6l4.2,11.6h0.5L23.7,7.8L23.4,8.6z"/>
<path class="st1" d="M38,6.9c0.8,0,1.7-0.1,2.5-0.2l0.2,3h-0.1l-0.6-2.2c-0.4-0.1-1-0.2-1.5-0.2c-0.8,0-1.5,0.1-2.4,0.4
	c-0.1,1.4-0.2,3.2-0.2,4.1v3.1c0,1.6,0.1,3.9,0.2,5.2l2,0.3v0.1h-6.1v-0.1l2-0.3c0.1-1.1,0.2-3.4,0.2-5v-3.4c0-1.3-0.1-2.9-0.2-4
	c-1-0.3-2.1-0.3-2.4-0.3c-0.6,0-1.3,0.1-1.6,0.2l-0.6,2.2h-0.1l0.2-3.1c0.5,0,1,0.2,1.5,0.2H38z M34.5,7.2v13H35v-13H34.5z"/>
<path class="st1" d="M41.1,6.9h8.6l0.2,2.9h-0.1l-0.6-2.3c-0.5,0-1-0.1-1.5-0.1c-1.1,0-1.9,0.1-2.5,0.2C45.1,8.3,45,9.6,45,11.2
	c0,0.6,0,1.4,0.1,2c0.6,0,1.1,0.1,1.6,0.1c0.6,0,1.3,0,1.9-0.1l0.4-1.6h0.1v4h-0.1l-0.4-1.7c-0.6-0.1-1-0.1-1.5-0.1
	c-0.6,0-1.2,0-2,0.1c0,0.6-0.1,1.3-0.1,1.8c0,1.1,0,3.1,0.1,4c0.7,0.3,1.7,0.3,2.6,0.3c0.4,0,0.9,0,1.6-0.1l0.6-2.3H50l-0.2,2.9
	h-8.7v-0.1l1.9-0.3c0.1-1,0.3-4.5,0.3-5.7v-2.3c0-0.8-0.1-3.1-0.2-4.8L41.1,6.9L41.1,6.9z M43.6,7.2v12.9h0.6V7.2H43.6z"/>
<path class="st1" d="M50.6,7L50.6,7l4.1-0.1c0.5,0.8,1.4,2.1,2.2,3.1l3.6,4.7c0.7,0.9,1.3,1.7,2.2,2.6c0-0.7,0.1-1.6,0.1-2.3v-4
	c0-1.2-0.1-2.5-0.2-3.6l-2-0.3V6.9h4.8V7l-2,0.3c-0.1,0.9-0.1,2.3-0.1,3.4v10.2h-0.1c-0.8-1.2-1.6-2.3-2.4-3.4l-4.9-6.4
	C55.2,10.4,54.6,9.6,54,9c-0.1,0.7-0.1,1.6-0.1,2.4v5.9c0,1,0.1,2,0.2,2.8l2.1,0.3v0.1h-4.9v-0.1l2-0.3c0.1-0.9,0.2-3.4,0.2-4.1
	v-4.6c0-1.1,0-2.2-0.1-3.2l-1.1-0.9L50.6,7z M53,7.2l9.8,12.5v-0.9L53.7,7.2H53z"/>
<path class="st1" d="M71.7,6.7l3.5,9.6c0.5,1.3,1,2.5,1.6,3.7l1.3,0.3v0.1h-5.7v-0.1l2.2-0.3c-0.2-1.2-0.6-2.8-1.2-3.9h-5.1
	c-0.4,1.1-1,2.8-1.1,3.9l2.1,0.3v0.1h-4.5v-0.1l1.5-0.3c0.3-0.7,0.7-1.6,1-2.4l3.7-11H71.7z M68.5,15.6c0.7,0.1,1.5,0.1,2.3,0.1
	c0.8,0,1.5,0,2.3-0.1c-0.4-1.5-1.5-4.3-2.4-6.2C70,11,68.9,14.6,68.5,15.6z M70.9,8.6l4.2,11.6h0.5L71.2,7.8L70.9,8.6z"/>
<path class="st1" d="M89.3,2.5c0.4,0.1,0.8,0.1,1.2,0.1c0.4,0,0.8,0.1,1.1,0.1H102v0.5l-7.1,11c-0.5,0.8-2.3,3.7-3.2,5.5
	c0.8,0.3,3.1,0.6,4.2,0.6h1.6c0.5,0,2.1-0.1,3-0.3l1.2-3.2h0.2l-0.6,4.4H88.3v-0.5l7.4-11.5c1.1-1.6,2.2-3.6,2.9-5.1
	c-0.4-0.2-2.2-0.6-3.9-0.6H93c-0.6,0-2.5,0.2-3.1,0.3l-1,3.1h-0.2L89.3,2.5z M99.8,3.2L88.7,20.7h0.9l11.2-17.4H99.8z"/>
<path class="st1" d="M109.5,6.6l3.6,9.9c0.5,1.3,1,2.5,1.6,3.8l1.4,0.3v0.1h-5.9v-0.1l2.3-0.3c-0.2-1.3-0.7-2.9-1.2-4h-5.2
	c-0.4,1.1-1,2.9-1.2,4l2.2,0.3v0.1h-4.6v-0.1l1.5-0.3c0.4-0.7,0.7-1.6,1-2.5l3.8-11.3H109.5z M106.3,15.6c0.8,0.1,1.6,0.1,2.4,0.1
	c0.8,0,1.6,0,2.4-0.1c-0.4-1.5-1.5-4.4-2.4-6.4C107.8,11,106.6,14.6,106.3,15.6z M108.7,8.5l4.3,11.9h0.6L109,7.6L108.7,8.5z"/>
<path class="st1" d="M122.1,6.7c1.9,0,2.8,0.4,3.4,1.2c0.6,0.7,0.9,1.7,0.9,2.7c0,2.2-1.6,4.2-4.1,4.2c-0.3,0-0.9,0-1.7-0.2v-0.1
	c2,0.2,4-0.8,4-3.5c0-1.5-0.8-3.8-2.9-3.8c-0.1,0-0.7,0-1.3,0.2c-0.1,0.6-0.2,3.3-0.2,4V16c0,0.4,0.1,3.3,0.2,4.3l2.1,0.4v0.1h-6.3
	v-0.1l2-0.3c0.2-1.4,0.3-3.9,0.3-5.8v-2.3c0-1.3-0.1-3.8-0.2-5.1l-2-0.3V6.7H122.1z M118.8,7.1v13.3h0.6V7.1H118.8z M122.3,14.6
	c1.2,0,3.2-0.8,3.2-3.7c0-1.7-0.8-3.9-3.3-3.9h-0.3V7c2,0.1,3.1,2,3.1,4C124.9,13.6,123.2,14.4,122.3,14.6L122.3,14.6z"/>
<path class="st1" d="M132,6.6l3.6,9.9c0.5,1.3,1,2.5,1.6,3.8l1.4,0.3v0.1h-5.9v-0.1l2.3-0.3c-0.2-1.3-0.7-2.9-1.2-4h-5.2
	c-0.4,1.1-1,2.9-1.2,4l2.2,0.3v0.1H125v-0.1l1.5-0.3c0.4-0.7,0.7-1.6,1-2.5l3.8-11.3H132z M128.8,15.6c0.8,0.1,1.6,0.1,2.4,0.1
	c0.8,0,1.6,0,2.4-0.1c-0.4-1.5-1.5-4.4-2.4-6.4C130.4,11,129.2,14.6,128.8,15.6z M131.3,8.5l4.3,11.9h0.6l-4.6-12.7L131.3,8.5z"/>
<path class="st1" d="M146.3,6.7c0.9,0,1.7-0.1,2.6-0.2l0.2,3.1h-0.1l-0.6-2.3c-0.5-0.1-1-0.2-1.6-0.2c-0.8,0-1.6,0.1-2.5,0.4
	c-0.1,1.4-0.2,3.3-0.2,4.2V15c0,1.7,0.1,4,0.3,5.3l2.1,0.4v0.1h-6.3v-0.1l2-0.4c0.1-1.2,0.3-3.5,0.3-5.1v-3.5c0-1.4-0.1-3-0.2-4.1
	c-1.1-0.3-2.2-0.4-2.4-0.4c-0.6,0-1.3,0.1-1.7,0.2l-0.6,2.3h-0.1l0.2-3.1c0.5,0,1,0.2,1.5,0.2H146.3z M142.6,7.1v13.3h0.6V7.1H142.6
	z"/>
<path class="st1" d="M154.6,6.6l3.6,9.9c0.5,1.3,1,2.5,1.6,3.8l1.4,0.3v0.1h-5.9v-0.1l2.3-0.3c-0.2-1.3-0.7-2.9-1.2-4h-5.2
	c-0.4,1.1-1,2.9-1.2,4l2.2,0.3v0.1h-4.6v-0.1l1.5-0.3c0.4-0.7,0.7-1.6,1-2.5L154,6.6H154.6z M151.4,15.6c0.8,0.1,1.6,0.1,2.4,0.1
	c0.8,0,1.6,0,2.4-0.1c-0.4-1.5-1.5-4.4-2.4-6.4C153,11,151.8,14.6,151.4,15.6z M153.9,8.5l4.3,11.9h0.6l-4.6-12.7L153.9,8.5z"/>
</svg>
